<svg xmlns="http://www.w3.org/2000/svg" width="141.188" height="26.351" viewBox="0 0 141.188 26.351">
    <defs>
        <style>
            .cls-1{fill:#333}.cls-2{fill:#221f20}
        </style>
    </defs>
    <g id="Group_4" transform="translate(310.491 -163.393)">
        <g id="Group_3" transform="translate(-310.491 163.393)">
            <path id="Path_4" d="M-283.718 201.811l-.013-2.171h-1.137v2.2l.567.4z" class="cls-1" transform="translate(298.181 -180.806)"/>
            <path id="Path_5" d="M-288.331 177.7l-4.821.013v4.519h-2.012v2.607l-1.444 1.074-1.431-1.049-.013-2.632h-2.012v-4.519h-4.854l-1.074-1.444 1.049-1.432 5.755-.013v.876h-5.318l-.4.568.427.582 5.293-.013v4.518h1.137v-7.668h-6.764v-.876h7.64v8.544h1.136v-8.543h7.639v.876h-6.764v7.668h1.137v-4.518h5.26l.4-.568-.427-.581-5.234.013v-.876h5.671l1.074 1.445zm-16.486-6.9h7.64v.876h-7.64zm8.777 0h7.568v.876h-7.568zm10.61-2.369l-6.927-5.032h-8.562l-6.926 5.032-2.646 8.143 2.646 8.143 6.926 5.032h8.562l6.927-5.032 2.646-8.143z" class="cls-1" transform="translate(310.491 -163.393)"/>
        </g>
        <path id="Path_6" d="M-220.121 177.383v5.29h-1.434v-.873c0-2.873-1.039-2.984-4.7-2.984v9.284c0 .5.194.7.795.7h1.472v1.434h-7.246V188.8h1.473c.6 0 .794-.194.794-.7v-9.281c-3.708 0-4.7.111-4.7 2.984v.872h-1.433v-5.29z" class="cls-2" transform="translate(-36.216 -6.721)"/>
        <path id="Path_7" d="M-193.708 190.228v-1.434h.969c.794 0 1.288-.194 1.288-.7v-8.409c0-.485-.416-.872-1.172-.872h-1.085v-1.434h7.227v1.434h-.853c-.619 0-1.4.194-1.4.93v8.1c0 .62.474.949 1.133.949h1.124v1.434z" class="cls-2" transform="translate(-56.102 -6.72)"/>
        <path id="Path_8" d="M-155.183 177.025h1.434V182h-1.492c-.523-1.86-1.271-3.7-4.979-3.7a5.222 5.222 0 0 0-5.45 5.135 5.072 5.072 0 0 0 5.045 5.153c3.2 0 4.531-1.008 4.531-2.48v-.736a.928.928 0 0 0-1.027-.93h-1.24v-1.434h6.994v1.434h-.988c-.833 0-1.027.193-1.027.969v4.457h-1.395l-.717-.988c-.662.662-2.711 1.375-5.667 1.375-4.249 0-7.732-2.674-7.732-6.82 0-3.9 2.9-6.8 8.671-6.8a6.43 6.43 0 0 1 4.553 1.453z" class="cls-2" transform="translate(-68.024 -6.362)"/>
        <path id="Path_9" d="M-120.449 182.769h2.286c2.093 0 4.921-.112 4.921-2.112s-3.021-1.879-4.726-1.879h-2.48zm-4.744 7.459v-1.434h.8c.6 0 1.161-.194 1.161-.7v-8.583c0-.5-.561-.7-1.161-.7h-.8v-1.434h10.135c2.809 0 4.694 1.1 4.694 3.216 0 2-1.767 2.965-3.723 3.139v.039c2.034.252 3.057 1.143 3.057 2.655 0 2.053.376 2.364.706 2.364.465 0 .659-.407.659-1.551v-.6h1.278v.6c0 2.48-1.066 3.372-2.674 3.372-1.892 0-2.945-1.3-2.945-3.29 0-3.162-.965-3.123-5.3-3.123h-1.143v3.902c0 .5.194.7.794.7h1.23v1.434z" class="cls-2" transform="translate(-89.017 -6.72)"/>
        <path id="Path_10" d="M-76.976 183.457c0 2.771.891 5.29 4.01 5.29h.6c2.982-.053 3.8-2.548 3.8-5.288 0-2.695-.788-5.169-3.7-5.3l-.757-.006c-3.062 0-3.952 2.538-3.952 5.309m12.009 0c0 3.814-3.275 6.737-7.415 6.8h-.642c-4.2 0-7.55-2.945-7.55-6.8s3.346-6.82 7.55-6.82c.1 0 .712 0 .815.006 4.058.141 7.241 3.054 7.241 6.815" class="cls-2" transform="translate(-110.452 -6.362)"/>
        <path id="Path_11" d="M-46.888 177.368h1.82v.31h-.746v1.713h-.326v-1.713h-.748z" class="cls-2" transform="translate(-126.634 -6.713)"/>
        <path id="Path_12" d="M-40.926 179.389v-1.375h-.015l-.632 1.133h-.052l-.632-1.133h-.015v1.375h-.311v-2.022h.335l.661 1.193h.006l.661-1.193h.32v2.022z" class="cls-2" transform="translate(-128.702 -6.713)"/>
    </g>
</svg>
