<svg width="35" height="28" viewBox="0 0 35 28" fill="none" xmlns="http://www.w3.org/2000/svg">
<path fill-rule="evenodd" clip-rule="evenodd" d="M23.8121 12.3961L32.7528 12.3728L34.7 9.81036L32.7082 7.21926H22.1912V8.79005L31.8978 8.76674L32.6897 9.80858L31.9479 10.8271H22.1931V18.9286H20.0845V5.17864H32.6285V3.60782H18.4618V18.9268H16.355V3.60605H2.18651V5.17684H14.7305V18.9268H12.6219V10.8253L2.8059 10.8486L2.01401 9.805L2.75581 8.78647H12.6182V7.21568L1.94542 7.23899L0 9.80678L1.99177 12.3961H10.9936V20.4994H14.7249L14.749 25.219L17.4029 27.1L20.0808 25.1742V20.4994H23.8121V12.3961ZM16.3476 0H2.1791V1.57079H16.3476V0ZM32.4913 0H18.4562V1.57079H32.4913V0ZM18.4544 20.4904L18.4785 24.3834L17.3973 25.1527L16.3457 24.4354V20.4904H18.4544Z" fill="#A47731"/>
</svg>
