<svg xmlns="http://www.w3.org/2000/svg" width="24.756" height="24.756" viewBox="0 0 24.756 24.756">
    <defs>
        <style>
            .cls-1{fill:#a47731}
        </style>
    </defs>
    <g id="Group_603">
        <path id="Path_416" d="M449.756 425.563a.56.56 0 0 0-.56-.56H433.1a.56.56 0 0 0-.56.56v3.211h-3.211a.56.56 0 0 0-.56.56v3.211h-3.209a.56.56 0 0 0-.56.56V449.2a.56.56 0 0 0 .56.56h16.094a.56.56 0 0 0 .56-.56v-3.212h3.211a.56.56 0 0 0 .56-.56v-3.212h3.215a.56.56 0 0 0 .56-.56zm-1.12.56v1.508l-2.652 2.652v-.948a.56.56 0 0 0-.56-.56h-.948l2.652-2.652zm-2.652 5.743l2.652-2.652v3.015l-2.652 2.651zm-.439-5.743l-2.652 2.652h-3.014l2.652-2.652zm-4.6 0l-2.652 2.652h-3.015l2.652-2.652zm-7.285 0h2.687l-2.652 2.652h-.035zm7.432 22.517H426.12v-14.975h14.974zm3.771-3.771h-2.651v-11.764a.56.56 0 0 0-.56-.56h-11.761v-2.651h14.974zm3.771-3.771h-2.652v-.035l2.652-2.651zm-2.652-1.618v-3.015l2.652-2.652v3.015z" class="cls-1" transform="translate(-425 -425.003)"/>
        <path id="Path_417" d="M614.084 771.514h1.734a.56.56 0 0 0 0-1.12h-1.734a.56.56 0 1 0 0 1.12z" class="cls-1" transform="translate(-606.344 -757.239)"/>
        <path id="Path_418" d="M614.084 899.359h1.734a.56.56 0 0 0 0-1.12h-1.734a.56.56 0 1 0 0 1.12z" class="cls-1" transform="translate(-606.344 -880.215)"/>
        <path id="Path_419" d="M501.849 707.588h1.734a.56.56 0 0 0 0-1.12h-1.734a.56.56 0 0 0 0 1.12z" class="cls-1" transform="translate(-498.383 -695.748)"/>
        <path id="Path_420" d="M726.319 707.588h1.734a.56.56 0 0 0 0-1.12h-1.734a.56.56 0 0 0 0 1.12z" class="cls-1" transform="translate(-714.304 -695.748)"/>
        <path id="Path_421" d="M501.849 963.279h1.734a.56.56 0 0 0 0-1.12h-1.734a.56.56 0 0 0 0 1.12z" class="cls-1" transform="translate(-498.383 -941.701)"/>
        <path id="Path_422" d="M726.319 963.279h1.734a.56.56 0 0 0 0-1.12h-1.734a.56.56 0 0 0 0 1.12z" class="cls-1" transform="translate(-714.304 -941.701)"/>
        <path id="Path_423" d="M501.849 835.434h1.734a.56.56 0 1 0 0-1.12h-1.734a.56.56 0 1 0 0 1.12z" class="cls-1" transform="translate(-498.383 -818.725)"/>
        <path id="Path_424" d="M728.056 834.314h-1.734a.56.56 0 1 0 0 1.12h1.734a.56.56 0 1 0 0-1.12z" class="cls-1" transform="translate(-714.307 -818.725)"/>
    </g>
</svg>
