<svg xmlns="http://www.w3.org/2000/svg" width="37.443" height="20.505" viewBox="0 0 37.443 20.505">
    <defs>
        <style>
            .cls-1{fill:#a47731}
        </style>
    </defs>
    <g id="Group_607">
        <path id="Path_24" d="M138.883 260.44a3.329 3.329 0 1 1 3.329-3.329 3.333 3.333 0 0 1-3.329 3.329zm0-5.365a2.036 2.036 0 1 0 2.036 2.036 2.039 2.039 0 0 0-2.036-2.036z" class="cls-1" transform="translate(-128.004 -239.935)"/>
        <path id="Path_25" d="M307.358 260.44a3.329 3.329 0 1 1 3.329-3.329 3.332 3.332 0 0 1-3.329 3.329zm0-5.365a2.036 2.036 0 1 0 2.036 2.036 2.039 2.039 0 0 0-2.036-2.036z" class="cls-1" transform="translate(-275.437 -239.935)"/>
        <path id="Path_26" d="M292.836 178.714h-2.191a.646.646 0 0 1 0-1.292h1.545v-6.831a5.849 5.849 0 0 0-5.842-5.842h-3.839a.646.646 0 0 1 0-1.292h3.839a7.143 7.143 0 0 1 7.135 7.135v7.477a.646.646 0 0 1-.647.645z" class="cls-1" transform="translate(-256.039 -160.89)"/>
        <path id="Path_27" d="M137.458 235.684H118.7a.646.646 0 0 1 0-1.292h18.76a.646.646 0 0 1 0 1.292z" class="cls-1" transform="translate(-112.688 -222.966)"/>
        <path id="Path_28" d="M120.882 276.559H118.7a.646.646 0 0 1 0-1.292h2.184a.646.646 0 0 1 0 1.292z" class="cls-1" transform="translate(-112.688 -258.735)"/>
        <path id="Path_29" d="M194.854 276.559h-15.672a.646.646 0 0 1 0-1.292h15.671a.646.646 0 0 1 0 1.292z" class="cls-1" transform="translate(-165.618 -258.735)"/>
        <path id="Path_30" d="M146.816 155.634h-19.37a.646.646 0 1 1 0-1.292h18.723v-10.136h-13.625a.646.646 0 1 1 0-1.292h14.272a.646.646 0 0 1 .646.646v11.427a.646.646 0 0 1-.646.647z" class="cls-1" transform="translate(-120.344 -142.914)"/>
        <path id="Path_31" d="M323.046 172.14h-6.013a.646.646 0 0 1-.646-.646v-7.266a.646.646 0 1 1 1.292 0v6.62h5.367a.646.646 0 1 1 0 1.292z" class="cls-1" transform="translate(-286.25 -161.001)"/>
        <path id="Path_32" d="M127.083 164.874H118.7a.646.646 0 0 1 0-1.292h8.385a.646.646 0 1 1 0 1.292z" class="cls-1" transform="translate(-112.688 -161.001)"/>
        <path id="Path_33" d="M97.572 212.368h-8.385a.646.646 0 1 1 0-1.292h8.385a.646.646 0 0 1 0 1.292z" class="cls-1" transform="translate(-86.863 -202.563)"/>
        <path id="Path_34" d="M87.495 189.951H75.754a.646.646 0 0 1 0-1.292h11.741a.646.646 0 0 1 0 1.292z" class="cls-1" transform="translate(-75.108 -182.945)"/>
    </g>
</svg>
